<?xml version="1.0" encoding="UTF-8" standalone="no"?>
<svg width="512px" height="512px" viewBox="0 0 512 512" version="1.1" xmlns="http://www.w3.org/2000/svg" xmlns:xlink="http://www.w3.org/1999/xlink" xmlns:sketch="http://www.bohemiancoding.com/sketch/ns">
    <!-- Generator: Sketch 3.3.3 (12072) - http://www.bohemiancoding.com/sketch -->
    <title>512</title>
    <desc>Created with Sketch.</desc>
    <defs></defs>
    <g id="Page-1" stroke="none" stroke-width="1" fill="none" fill-rule="evenodd" sketch:type="MSPage">
        <g id="512" sketch:type="MSArtboardGroup">
            <g id="hex-image" sketch:type="MSLayerGroup" transform="translate(33.707789, 0.375070)" fill="#FCF6DD">
                <path d="M12.0849337,376.725314 L12.0849337,132.874287 L223.791801,10.9276028 L435.498669,132.874287 L435.498669,376.725314 L223.791801,498.66847 L12.0849337,376.725314 Z" id="Shape" sketch:type="MSShapeGroup"></path>
                <path d="M222.027577,21.1107031 L424.913325,137.969366 L424.913325,371.626707 L222.027577,488.485369 L19.1418293,371.626707 L19.1418293,137.969366 L222.027577,21.1107031 L222.027577,21.1107031 Z M222.027577,0.748030932 L1.49959031,127.772151 L1.49959031,381.823921 L222.027577,508.848042 L442.555564,381.823921 L442.555564,127.772151 L222.027577,0.748030932 L222.027577,0.748030932 Z" id="Shape" sketch:type="MSShapeGroup"></path>
            </g>
            <g id="RGB" sketch:type="MSLayerGroup" transform="translate(33.707789, 0.375070)" fill="#BD1FD0">
                <g id="lower-+-upper" transform="translate(0.000000, 59.983612)" sketch:type="MSShapeGroup">
                    <path d="M1.69365333,148.920067 L17.253798,148.911909 L442.838268,148.688788 L222.265964,275.928227 L12.8577931,155.316345 L1.69365333,148.920067 Z M442.838268,148.672828 L427.278124,148.680985 L1.69365333,148.904107 L222.265958,21.6646673 L431.674129,142.27655 L442.838268,148.672828 Z" id="lower" fill-opacity="0.6"></path>
                    <path d="M424.507545,138.138736 L222.186362,254.915487 L19.971014,138.366452 L222.292211,21.6618538 L424.507545,138.138736 Z M1.49959031,127.832394 L1.49959031,148.946367 L222.303062,276.101298 L442.555564,148.946367 L442.555564,127.50284 L222.027577,0.384432402 L1.49959031,127.832394 Z" id="border" fill-opacity="0.6"></path>
                    <path d="M1.55747891,127.836479 L17.1176236,127.828321 L442.702094,127.605199 L222.12979,254.844639 L12.7216187,134.232757 L1.55747891,127.836479 Z M442.702094,127.589239 L427.141949,127.597397 L1.55747891,127.820518 L222.129783,0.581078835 L431.537954,121.192961 L442.702094,127.589239 Z" id="upper" fill-opacity="0.200000003"></path>
                </g>
                <g id="lower-+-upper-copy" transform="translate(0.000000, 119.967225)" sketch:type="MSShapeGroup">
                    <path d="M1.69365333,148.920067 L17.253798,148.911909 L442.838268,148.688788 L222.265964,275.928227 L12.8577931,155.316345 L1.69365333,148.920067 Z M442.838268,148.672828 L427.278124,148.680985 L1.69365333,148.904107 L222.265958,21.6646673 L431.674129,142.27655 L442.838268,148.672828 Z" id="lower" fill-opacity="0.6"></path>
                    <path d="M424.507545,138.138736 L222.186362,254.915487 L19.971014,138.366452 L222.292211,21.6618538 L424.507545,138.138736 Z M1.49959031,127.832394 L1.49959031,148.946367 L222.303062,276.101298 L442.555564,148.946367 L442.555564,127.50284 L222.027577,0.384432402 L1.49959031,127.832394 Z" id="border" fill-opacity="0.6"></path>
                    <path d="M1.55747891,127.836479 L17.1176236,127.828321 L442.702094,127.605199 L222.12979,254.844639 L12.7216187,134.232757 L1.55747891,127.836479 Z M442.702094,127.589239 L427.141949,127.597397 L1.55747891,127.820518 L222.129783,0.581078835 L431.537954,121.192961 L442.702094,127.589239 Z" id="upper" fill-opacity="0.200000003"></path>
                </g>
                <g id="lower-+-upper-copy-4" transform="translate(0.000000, 179.950837)" sketch:type="MSShapeGroup">
                    <path d="M1.69365333,148.920067 L17.253798,148.911909 L442.838268,148.688788 L222.265964,275.928227 L12.8577931,155.316345 L1.69365333,148.920067 Z M442.838268,148.672828 L427.278124,148.680985 L1.69365333,148.904107 L222.265958,21.6646673 L431.674129,142.27655 L442.838268,148.672828 Z" id="lower" fill-opacity="0.6"></path>
                    <path d="M424.507545,138.138736 L222.186362,254.915487 L19.971014,138.366452 L222.292211,21.6618538 L424.507545,138.138736 Z M1.49959031,127.832394 L1.49959031,148.946367 L222.303062,276.101298 L442.555564,148.946367 L442.555564,127.50284 L222.027577,0.384432402 L1.49959031,127.832394 Z" id="border" fill-opacity="0.6"></path>
                    <path d="M1.55747891,127.836479 L17.1176236,127.828321 L442.702094,127.605199 L222.12979,254.844639 L12.7216187,134.232757 L1.55747891,127.836479 Z M442.702094,127.589239 L427.141949,127.597397 L1.55747891,127.820518 L222.129783,0.581078835 L431.537954,121.192961 L442.702094,127.589239 Z" id="upper" fill-opacity="0.200000003"></path>
                </g>
                <g id="lower-+-upper-copy-3" transform="translate(0.000000, 232.877554)" sketch:type="MSShapeGroup">
                    <path d="M1.69365333,148.920067 L17.253798,148.911909 L442.838268,148.688788 L222.265964,275.928227 L12.8577931,155.316345 L1.69365333,148.920067 Z M442.838268,148.672828 L427.278124,148.680985 L1.69365333,148.904107 L222.265958,21.6646673 L431.674129,142.27655 L442.838268,148.672828 Z" id="lower" fill-opacity="0.6"></path>
                    <path d="M424.507545,138.138736 L222.186362,254.915487 L19.971014,138.366452 L222.292211,21.6618538 L424.507545,138.138736 Z M1.49959031,127.832394 L1.49959031,148.946367 L222.303062,276.101298 L442.555564,148.946367 L442.555564,127.50284 L222.027577,0.384432402 L1.49959031,127.832394 Z" id="border" fill-opacity="0.6"></path>
                    <path d="M1.55747891,127.836479 L17.1176236,127.828321 L442.702094,127.605199 L222.12979,254.844639 L12.7216187,134.232757 L1.55747891,127.836479 Z M442.702094,127.589239 L427.141949,127.597397 L1.55747891,127.820518 L222.129783,0.581078835 L431.537954,121.192961 L442.702094,127.589239 Z" id="upper" fill-opacity="0.200000003"></path>
                </g>
                <g id="lower-+-upper-copy-2" transform="translate(0.000000, 0.000000)" sketch:type="MSShapeGroup">
                    <path d="M1.69365333,148.920067 L17.253798,148.911909 L442.838268,148.688788 L222.265964,275.928227 L12.8577931,155.316345 L1.69365333,148.920067 Z M442.838268,148.672828 L427.278124,148.680985 L1.69365333,148.904107 L222.265958,21.6646673 L431.674129,142.27655 L442.838268,148.672828 Z" id="lower" fill-opacity="0.6"></path>
                    <path d="M424.507545,138.138736 L222.186362,254.915487 L19.971014,138.366452 L222.292211,21.6618538 L424.507545,138.138736 Z M1.49959031,127.832394 L1.49959031,148.946367 L222.303062,276.101298 L442.555564,148.946367 L442.555564,127.50284 L222.027577,0.384432402 L1.49959031,127.832394 Z" id="border" fill-opacity="0.6"></path>
                    <path d="M1.55747891,127.836479 L17.1176236,127.828321 L442.702094,127.605199 L222.12979,254.844639 L12.7216187,134.232757 L1.55747891,127.836479 Z M442.702094,127.589239 L427.141949,127.597397 L1.55747891,127.820518 L222.129783,0.581078835 L431.537954,121.192961 L442.702094,127.589239 Z" id="upper"></path>
                </g>
            </g>
        </g>
    </g>
</svg>