<?xml version="1.0" encoding="UTF-8" standalone="no"?>
<svg width="512px" height="512px" viewBox="0 0 512 512" version="1.1" xmlns="http://www.w3.org/2000/svg" xmlns:xlink="http://www.w3.org/1999/xlink" xmlns:sketch="http://www.bohemiancoding.com/sketch/ns">
    <!-- Generator: Sketch 3.3.3 (12072) - http://www.bohemiancoding.com/sketch -->
    <title>512v4</title>
    <desc>Created with Sketch.</desc>
    <defs></defs>
    <g id="Page-1" stroke="none" stroke-width="1" fill="none" fill-rule="evenodd" sketch:type="MSPage">
        <g id="512" sketch:type="MSArtboardGroup">
            <g id="hex-image" sketch:type="MSLayerGroup" transform="translate(33.707789, 0.375070)" fill="#FCF6DD">
                <path d="M12.0849337,376.725314 L12.0849337,132.874287 L223.791801,10.9276028 L435.498669,132.874287 L435.498669,376.725314 L223.791801,498.66847 L12.0849337,376.725314 Z" id="Shape" sketch:type="MSShapeGroup"></path>
                <path d="M222.027577,21.1107031 L424.913325,137.969366 L424.913325,371.626707 L222.027577,488.485369 L19.1418293,371.626707 L19.1418293,137.969366 L222.027577,21.1107031 L222.027577,21.1107031 Z M222.027577,0.748030932 L1.49959031,127.772151 L1.49959031,381.823921 L222.027577,508.848042 L442.555564,381.823921 L442.555564,127.772151 L222.027577,0.748030932 L222.027577,0.748030932 Z" id="Shape" sketch:type="MSShapeGroup"></path>
            </g>
            <g id="RGB" sketch:type="MSLayerGroup" transform="translate(34.707789, 0.375070)">
                <g id="sheet-copy-4" transform="translate(0.000000, 229.624930)" sketch:type="MSShapeGroup">
                    <path d="M0.693653325,148.920067 L16.253798,148.911909 L441.838268,148.688788 L221.265964,275.928227 L11.8577931,155.316345 L0.693653325,148.920067 Z M441.838268,148.672828 L426.278124,148.680985 L0.693653325,148.904107 L221.265958,21.6646673 L430.674129,142.27655 L441.838268,148.672828 Z" id="lower" fill="#C768D1"></path>
                    <path d="M423.507545,138.138736 L221.186362,254.915487 L18.971014,138.366452 L221.292211,21.6618538 L423.507545,138.138736 Z M0.499590312,127.832394 L0.499590312,148.946367 L221.303062,276.101298 L441.555564,148.946367 L441.555564,127.50284 L221.027577,0.384432402 L0.499590312,127.832394 Z" id="border" fill-opacity="0.9" fill="#C768D1"></path>
                    <path d="M0.557478906,127.836479 L16.1176236,127.828321 L441.702094,127.605199 L221.12979,254.844639 L11.7216187,134.232757 L0.557478906,127.836479 Z M441.702094,127.589239 L426.141949,127.597397 L0.557478906,127.820518 L221.129783,0.581078835 L430.537954,121.192961 L441.702094,127.589239 Z" id="upper" fill-opacity="0.8" fill="#C991CF"></path>
                </g>
                <g id="sheet-copy-3" transform="translate(0.000000, 184.624930)" sketch:type="MSShapeGroup">
                    <path d="M0.693653325,148.920067 L16.253798,148.911909 L441.838268,148.688788 L221.265964,275.928227 L11.8577931,155.316345 L0.693653325,148.920067 Z M441.838268,148.672828 L426.278124,148.680985 L0.693653325,148.904107 L221.265958,21.6646673 L430.674129,142.27655 L441.838268,148.672828 Z" id="lower" fill="#C768D1"></path>
                    <path d="M423.507545,138.138736 L221.186362,254.915487 L18.971014,138.366452 L221.292211,21.6618538 L423.507545,138.138736 Z M0.499590312,127.832394 L0.499590312,148.946367 L221.303062,276.101298 L441.555564,148.946367 L441.555564,127.50284 L221.027577,0.384432402 L0.499590312,127.832394 Z" id="border" fill-opacity="0.9" fill="#C768D1"></path>
                    <path d="M0.557478906,127.836479 L16.1176236,127.828321 L441.702094,127.605199 L221.12979,254.844639 L11.7216187,134.232757 L0.557478906,127.836479 Z M441.702094,127.589239 L426.141949,127.597397 L0.557478906,127.820518 L221.129783,0.581078835 L430.537954,121.192961 L441.702094,127.589239 Z" id="upper" fill-opacity="0.8" fill="#C991CF"></path>
                </g>
                <g id="sheet-copy-2" transform="translate(0.000000, 138.624930)" sketch:type="MSShapeGroup">
                    <path d="M0.693653325,148.920067 L16.253798,148.911909 L441.838268,148.688788 L221.265964,275.928227 L11.8577931,155.316345 L0.693653325,148.920067 Z M441.838268,148.672828 L426.278124,148.680985 L0.693653325,148.904107 L221.265958,21.6646673 L430.674129,142.27655 L441.838268,148.672828 Z" id="lower" fill="#C768D1"></path>
                    <path d="M423.507545,138.138736 L221.186362,254.915487 L18.971014,138.366452 L221.292211,21.6618538 L423.507545,138.138736 Z M0.499590312,127.832394 L0.499590312,148.946367 L221.303062,276.101298 L441.555564,148.946367 L441.555564,127.50284 L221.027577,0.384432402 L0.499590312,127.832394 Z" id="border" fill-opacity="0.9" fill="#C768D1"></path>
                    <path d="M0.557478906,127.836479 L16.1176236,127.828321 L441.702094,127.605199 L221.12979,254.844639 L11.7216187,134.232757 L0.557478906,127.836479 Z M441.702094,127.589239 L426.141949,127.597397 L0.557478906,127.820518 L221.129783,0.581078835 L430.537954,121.192961 L441.702094,127.589239 Z" id="upper" fill-opacity="0.8" fill="#C991CF"></path>
                </g>
                <g id="sheet-copy" transform="translate(0.000000, 46.624930)" sketch:type="MSShapeGroup">
                    <path d="M0.693653325,148.920067 L16.253798,148.911909 L441.838268,148.688788 L221.265964,275.928227 L11.8577931,155.316345 L0.693653325,148.920067 Z M441.838268,148.672828 L426.278124,148.680985 L0.693653325,148.904107 L221.265958,21.6646673 L430.674129,142.27655 L441.838268,148.672828 Z" id="lower" fill="#C768D1"></path>
                    <path d="M423.507545,138.138736 L221.186362,254.915487 L18.971014,138.366452 L221.292211,21.6618538 L423.507545,138.138736 Z M0.499590312,127.832394 L0.499590312,148.946367 L221.303062,276.101298 L441.555564,148.946367 L441.555564,127.50284 L221.027577,0.384432402 L0.499590312,127.832394 Z" id="border" fill-opacity="0.9" fill="#C768D1"></path>
                    <path d="M0.557478906,127.836479 L16.1176236,127.828321 L441.702094,127.605199 L221.12979,254.844639 L11.7216187,134.232757 L0.557478906,127.836479 Z M441.702094,127.589239 L426.141949,127.597397 L0.557478906,127.820518 L221.129783,0.581078835 L430.537954,121.192961 L441.702094,127.589239 Z" id="upper" fill-opacity="0.8" fill="#C991CF"></path>
                </g>
            </g>
        </g>
    </g>
</svg>