<?xml version="1.0" encoding="UTF-8" standalone="no"?>
<svg width="512px" height="512px" viewBox="0 0 512 512" version="1.1" xmlns="http://www.w3.org/2000/svg" xmlns:xlink="http://www.w3.org/1999/xlink" xmlns:sketch="http://www.bohemiancoding.com/sketch/ns">
    <!-- Generator: Sketch 3.3.3 (12072) - http://www.bohemiancoding.com/sketch -->
    <title>512v6</title>
    <desc>Created with Sketch.</desc>
    <defs></defs>
    <g id="Page-1" stroke="none" stroke-width="1" fill="none" fill-rule="evenodd" sketch:type="MSPage">
        <g id="512" sketch:type="MSArtboardGroup">
            <g id="outline" sketch:type="MSLayerGroup" transform="translate(34.707789, 0.375070)" fill="#FCF6DD">
                <path d="M11.0849337,376.725314 L11.0849337,132.874287 L222.791801,10.9276028 L434.498669,132.874287 L434.498669,376.725314 L222.791801,498.66847 L11.0849337,376.725314 Z" id="Shape" sketch:type="MSShapeGroup"></path>
                <path d="M423.913325,137.969366 L423.913325,371.626707 L221.027577,488.485369 L18.1418293,371.626707 L18.1418293,137.969366 L221.027577,21.1107031 L423.913325,137.969366 Z M0.499590312,127.772151 L0.502210042,381.824942 L221.032216,508.848042 L441.555564,381.823921 L441.552221,127.772151 L221.027577,0.744929985 L0.499590312,127.772151 Z" id="Shape" sketch:type="MSShapeGroup"></path>
            </g>
            <g id="sheets" sketch:type="MSLayerGroup" transform="translate(256.207789, 255.075070) scale(1, -1) translate(-256.207789, -255.075070) translate(34.707789, -0.424930)">
                <g id="sheet-copy-5" transform="translate(221.000000, 139.105069) scale(1, -1) translate(-221.000000, -139.105069) translate(0.000000, 0.605069)" sketch:type="MSShapeGroup">
                    <path d="M441.55689,149.230011 L221.032216,276.25 L0.502210042,149.230011 L220.992208,21.5200043 L441.55689,149.230011 Z" id="lower-2" fill-opacity="0.8" fill="#C991CF"></path>
                    <path d="M422.943365,138.478607 L221.032216,254.790009 L19.1103872,138.478607 L221.292211,22.0299988 L422.943365,138.478607 Z M0.502210042,127.799988 L0.502210042,149.230011 L221.027575,276.25 L441.552221,149.230011 L441.552221,127.769989 L221.027577,0.649993896 L0.502210042,127.799988 Z" id="border" fill-opacity="0.9" fill="#C768D1"></path>
                    <path d="M441.552221,127.769989 L221.032216,254.790009 L0.502210042,127.769989 L221.032216,0.649993896 L441.552221,127.769989 Z" id="upper" fill="#C991CF"></path>
                </g>
                <g id="sheet-copy-4" transform="translate(221.000000, 183.075070) scale(1, -1) translate(-221.000000, -183.075070) translate(0.000000, 44.575070)" sketch:type="MSShapeGroup">
                    <path d="M441.55689,149.230011 L221.032216,276.25 L0.502210042,149.230011 L220.992208,21.5200043 L441.55689,149.230011 Z" id="lower-2" fill-opacity="0.8" fill="#C991CF"></path>
                    <path d="M422.943365,138.478607 L221.032216,254.790009 L19.1103872,138.478607 L221.292211,22.0299988 L422.943365,138.478607 Z M0.502210042,127.799988 L0.502210042,149.230011 L221.027575,276.25 L441.552221,149.230011 L441.552221,127.769989 L221.027577,0.649993896 L0.502210042,127.799988 Z" id="border" fill-opacity="0.9" fill="#C768D1"></path>
                    <path d="M441.552221,127.769989 L221.032216,254.790009 L0.502210042,127.769989 L221.032216,0.649993896 L441.552221,127.769989 Z" id="upper" fill="#C991CF"></path>
                </g>
                <g id="sheet-copy-3" transform="translate(221.000000, 230.075070) scale(1, -1) translate(-221.000000, -230.075070) translate(0.000000, 91.575070)" sketch:type="MSShapeGroup">
                    <path d="M441.55689,149.230011 L221.032216,276.25 L0.502210042,149.230011 L220.992208,21.5200043 L441.55689,149.230011 Z" id="lower-2" fill-opacity="0.8" fill="#C991CF"></path>
                    <path d="M422.943365,138.478607 L221.032216,254.790009 L19.1103872,138.478607 L221.292211,22.0299988 L422.943365,138.478607 Z M0.502210042,127.799988 L0.502210042,149.230011 L221.027575,276.25 L441.552221,149.230011 L441.552221,127.769989 L221.027577,0.649993896 L0.502210042,127.799988 Z" id="border" fill-opacity="0.9" fill="#C768D1"></path>
                    <path d="M441.552221,127.769989 L221.032216,254.790009 L0.502210042,127.769989 L221.032216,0.649993896 L441.552221,127.769989 Z" id="upper" fill="#C991CF"></path>
                </g>
                <g id="sheet-copy" transform="translate(221.000000, 371.605070) scale(1, -1) translate(-221.000000, -371.605070) translate(0.000000, 233.105070)" sketch:type="MSShapeGroup">
                    <path d="M441.55689,149.230011 L221.032216,276.25 L0.502210042,149.230011 L220.992208,21.5200043 L441.55689,149.230011 Z" id="lower-2" fill-opacity="0.8" fill="#C991CF"></path>
                    <path d="M422.943365,138.478607 L221.032216,254.790009 L19.1103872,138.478607 L221.292211,22.0299988 L422.943365,138.478607 Z M0.502210042,127.799988 L0.502210042,149.230011 L221.027575,276.25 L441.552221,149.230011 L441.552221,127.769989 L221.027577,0.649993896 L0.502210042,127.799988 Z" id="border" fill-opacity="0.9" fill="#C768D1"></path>
                    <path d="M441.552221,127.769989 L221.032216,254.790009 L0.502210042,127.769989 L221.032216,0.649993896 L441.552221,127.769989 Z" id="upper" fill="#C991CF"></path>
                </g>
            </g>
        </g>
    </g>
</svg>